<svg width="869" height="974" viewBox="0 0 869 974" fill="none" xmlns="http://www.w3.org/2000/svg">
<path d="M0.62265 503.744C-0.32735 483.631 2.16262 471.204 5.65762 451.824C15.0166 399.926 35.6156 356.184 71.1436 316.994C121.794 262.166 191.954 229.423 266.514 225.814C291.784 224.584 315.054 226.402 339.794 230.575C350.664 232.407 377.504 241.442 386.164 240.11C416.004 235.518 449.524 227.367 479.004 220.827C629.024 187.547 755.224 124.642 859.954 9.806L868.744 0C868.504 17.574 868.344 34.953 867.484 52.512C862.404 156.854 817.754 235.502 735.224 298.131C765.844 287.566 803.454 270.149 832.514 254.966C825.634 277.127 822.104 299.599 814.804 321.996C792.754 389.585 742.824 445.646 676.884 473.502C699.424 471.144 733.534 471.366 757.424 470.395C753.474 480.693 746.314 492.872 740.354 502.217C713.924 544.311 675.494 577.533 630.024 597.606C603.204 609.576 578.594 615.559 550.224 621.366C528.464 661.009 501.374 690.653 463.934 716.408C477.834 735.693 500.514 761.693 516.034 780.813L625.304 915.703C636.764 929.973 656.914 953.193 666.684 967.023L668.5 969.753H662.964C662.964 969.753 485.224 969.493 460.194 969.653C460.754 969.653 454.984 966.093 453.774 965.503L453.184 965.213C451.254 963.823 429.954 935.803 426.554 931.493C384.524 878.233 343.604 824.043 302.114 770.363C298.324 765.473 293.714 758.723 287.744 758.053C281.574 758.353 274.874 758.373 268.704 758.263C233.144 757.643 196.844 759.343 161.364 757.783C159.574 760.513 159.884 762.753 159.774 766.073C160.004 834.293 160.584 904.733 159.704 972.863C109.414 973.873 51.0906 974.023 0.688629 972.853C0.278629 932.723 0.165603 892.583 0.348603 852.453C0.351603 834.743 -0.547406 806.503 0.614594 789.553C0.130594 786.593 0.355631 770.673 0.352631 766.453L0.332611 714.087L0.2706 634.504C0.2476 621.745 -0.402373 601.755 0.623627 589.979C-0.236373 579.5 0.157652 560.981 0.174652 549.927C0.196652 536.111 -0.45335 517.007 0.62265 503.744ZM225.764 589.35L225.614 536.733C225.404 490.73 226.374 453.103 261.634 417.703C284.074 395.175 309.654 385.818 340.204 380.134C499.494 350.06 693.594 336.313 789.554 185.316C804.874 161.21 816.694 131.845 821.754 103.697C821.954 102.47 821.284 101.695 820.464 100.972C743.754 165.216 658.944 208.149 563.434 237.212C523.954 249.08 483.934 259.077 443.514 267.169C312.434 293.828 176.074 317.837 160.734 479.153C159.774 489.317 159.104 587.089 160.904 589.486C182.524 589.719 204.144 589.674 225.764 589.35ZM121.834 934.263C120.844 902.753 121.644 868.023 121.654 836.293L121.694 655.853L121.724 547.83C121.754 510.352 119.804 478.151 128.124 441.127C149.564 345.694 207.824 296.305 296.804 264.078C289.074 263.566 279.944 262.908 272.294 263.664C137.234 272.462 40.3196 367.413 39.1756 504.592C38.9046 537.121 39.1566 569.726 39.1946 602.26L39.2156 783.073L39.3776 879.993C39.3376 888.853 38.0376 927.853 39.9336 933.743C42.5246 934.733 42.7796 934.523 45.4936 934.323C70.8236 934.313 96.5436 934.543 121.834 934.263ZM403.744 405.742C419.954 420.962 432.124 432.483 440.364 454.004C444.584 465.039 446.754 472.281 448.494 483.961C547.964 477.255 667.484 462.456 737.464 383.063C753.974 364.332 761.264 350.384 771.344 327.994L770.984 326.52L770.244 326.527C679.704 358.767 594.204 378.427 499.014 390.944C467.514 395.087 435.274 402.491 403.744 405.742ZM159.984 720.203L295.994 720.143C304.774 720.153 314.144 719.803 322.844 720.123C392.224 722.713 462.674 683.677 501.614 626.973C468.704 627.224 409.534 627.921 409.534 627.921H369.5C369.5 627.921 300.274 627.921 260.114 627.921C226.764 628.03 193.424 627.945 160.084 627.664C159.824 658.508 159.794 689.354 159.984 720.203ZM653.444 511.729C620.614 512.553 587.784 511.857 554.974 513.032C519.904 514.288 483.364 520.464 448.784 522.215C443.174 551.038 436.804 564.319 418.874 587.433C431.164 588.313 443.294 588.388 455.604 588.561C531.634 591.822 616.714 576.705 674.624 523.713C679.024 519.639 683.324 515.454 687.524 511.163C676.424 511.356 664.474 511.798 653.444 511.729ZM341.744 588.086C366.674 582.727 383.994 572.366 398.204 550.14C410.654 530.445 414.724 506.596 409.534 483.883C401.524 448.341 370.894 420.91 333.724 421.755C313.264 424.365 294.724 435.121 282.304 451.586C275.134 461.096 270.074 472.031 267.464 483.657C262.744 504.335 264.974 564.819 264.634 589.457C282.184 589.685 325.884 590.901 341.744 588.086ZM428.694 735.973C401.464 749.373 371.684 756.803 341.354 757.773C362.514 786.593 386.954 816.623 408.914 845.413C423.734 864.813 438.734 884.073 453.924 903.173C461.194 912.443 471.064 925.923 478.604 934.283L503.494 934.403C531.234 934.403 563.054 933.593 590.444 934.483C573.164 913.393 435.034 739.133 428.694 735.973Z" fill="black"/>
</svg>
