<svg xmlns="http://www.w3.org/2000/svg" viewBox="0 0 120 24" fill="currentColor">
  <path d="M10.8 4.8c3.1 0 5.6 1.7 6.6 4.3h3.2c-1.2-4.2-5-7.1-9.8-7.1C4.8 2 0 6.8 0 13s4.8 11 10.8 11c4.8 0 8.6-2.9 9.8-7.1h-3.2c-1 2.6-3.5 4.3-6.6 4.3-4.2 0-7.6-3.4-7.6-7.6V13c0-4.5 3.4-8.2 7.6-8.2z"/>
  <path d="M31.2 2.4h-3v21.2h3V2.4z"/>
  <path d="M45.4 7.2c-2.1 0-4 .9-5.2 2.4V7.6h-2.8v16h3v-9.2c0-2.8 1.8-4.6 4.4-4.6 2.5 0 4.2 1.7 4.2 4.4v9.4h3V14c0-4.2-2.7-6.8-6.6-6.8z"/>
  <path d="M69.6 7.6h-3v1.8c-1.2-1.4-3-2.2-5.2-2.2-4.6 0-8.2 3.8-8.2 8.4s3.6 8.4 8.2 8.4c2.2 0 4-.8 5.2-2.2v1.8h3V7.6zm-7.8 13.6c-3.1 0-5.6-2.4-5.6-5.6s2.5-5.6 5.6-5.6 5.6 2.4 5.6 5.6-2.5 5.6-5.6 5.6z"/>
  <path d="M86.4 7.6h-3v1.6c-1.1-1.3-2.7-2-4.6-2-4.4 0-7.8 3.6-7.8 8.4s3.4 8.4 7.8 8.4c1.9 0 3.5-.7 4.6-2v1.6h3V7.6zm-7.2 13.6c-3 0-5.4-2.4-5.4-5.6s2.4-5.6 5.4-5.6 5.4 2.4 5.4 5.6-2.4 5.6-5.4 5.6z"/>
  <path d="M104.4 7.2c-1.7 0-3.2.6-4.2 1.7V7.6h-3v16h3v-9c0-2.7 1.6-4.4 4-4.4.6 0 1.2.1 1.8.3l.8-2.8c-.7-.3-1.5-.5-2.4-.5z"/>
  <path d="M120 7.6h-3.4v-5l-3 .8v4.2h-2.8v2.6h2.8v9.4c0 2.6 1.4 4 4 4 .8 0 1.6-.1 2.4-.4v-2.6c-.5.2-1.1.3-1.6.3-1.2 0-1.8-.6-1.8-1.8v-8.9h3.4V7.6z"/>
</svg>
