<svg xmlns="http://www.w3.org/2000/svg" viewBox="0 0 90 24" fill="currentColor">
  <path d="M10.8 2C4.8 2 0 6.8 0 12.8S4.8 24 10.8 24s10.8-4.8 10.8-10.8S16.8 2 10.8 2zm0 18.4c-4.2 0-7.6-3.4-7.6-7.6s3.4-7.6 7.6-7.6 7.6 3.4 7.6 7.6-3.4 7.6-7.6 7.6z"/>
  <path d="M37.2 2c-2.4 0-4.4 1-5.6 2.6V2.4h-3v21.2h3V14c0-3.2 2-5.4 5-5.4s4.8 2.1 4.8 5.2v9.8h3V13.4c0-4.6-3-7.4-7.2-7.4z"/>
  <path d="M57.6 2.4h-3v6.8c-1.2-1.4-3-2.2-5.2-2.2-4.6 0-8.2 3.8-8.2 8.4s3.6 8.4 8.2 8.4c2.2 0 4-.8 5.2-2.2v1.8h3V2.4zm-7.8 18.8c-3.1 0-5.6-2.4-5.6-5.6s2.5-5.6 5.6-5.6 5.6 2.4 5.6 5.6-2.5 5.6-5.6 5.6z"/>
  <path d="M74.4 7.2c-1.7 0-3.2.6-4.2 1.7V7.6h-3v16h3v-9c0-2.7 1.6-4.4 4-4.4.6 0 1.2.1 1.8.3l.8-2.8c-.7-.3-1.5-.5-2.4-.5z"/>
  <path d="M89.6 7.6h-3v1.8c-1.2-1.4-3-2.2-5.2-2.2-4.6 0-8.2 3.8-8.2 8.4s3.6 8.4 8.2 8.4c2.2 0 4-.8 5.2-2.2v1.8h3V7.6zm-7.8 13.6c-3.1 0-5.6-2.4-5.6-5.6s2.5-5.6 5.6-5.6 5.6 2.4 5.6 5.6-2.5 5.6-5.6 5.6z"/>
</svg>
