<svg xmlns="http://www.w3.org/2000/svg" viewBox="0 0 280 80" fill="currentColor">
  <!-- O -->
  <path d="M40 10C17.9 10 0 27.9 0 50s17.9 40 40 40 40-17.9 40-40S62.1 10 40 10zm0 64c-13.2 0-24-10.8-24-24s10.8-24 24-24 24 10.8 24 24-10.8 24-24 24z"/>
  <!-- U -->
  <path d="M100 14v42c0 15.5 12.5 28 28 28s28-12.5 28-28V14h-16v42c0 6.6-5.4 12-12 12s-12-5.4-12-12V14h-16z"/>
  <!-- R -->
  <path d="M176 14v70h16V58h12l14 26h18l-16-28c8-4 14-13 14-24 0-15.5-12.5-28-28-28h-30zm16 16h14c6.6 0 12 5.4 12 12s-5.4 12-12 12h-14V30z"/>
  <!-- A -->
  <path d="M280 84h-17l-6-16h-34l-6 16h-17l32-70h16l32 70zm-40-56l-12 28h24l-12-28z"/>
</svg>
