<svg xmlns="http://www.w3.org/2000/svg" viewBox="0 0 90 24" fill="currentColor">
  <path d="M0 2v20h3V14h5c4 0 7-2.5 7-6s-3-6-7-6H0zm7.5 9H3V5h4.5c2.5 0 4 1.3 4 3s-1.5 3-4 3z"/>
  <path d="M26.8 2c-6 0-10.8 4.6-10.8 10.4S20.8 23 26.8 23s10.8-4.6 10.8-10.4S32.8 2 26.8 2zm0 18c-4.2 0-7.6-3.2-7.6-7.4s3.4-7.6 7.6-7.6 7.6 3.2 7.6 7.6-3.4 7.4-7.6 7.4z"/>
  <path d="M40 2v20h12v-3H43V2h-3z"/>
  <path d="M64.4 2l-8.4 20h3.2l1.8-4.4h9l1.8 4.4H75L66.6 2h-2.2zm.8 4.8l3.2 7.8h-6.4l3.2-7.8z"/>
  <path d="M78 2v20h3v-7h4.2l4.2 7H93l-4.8-7.6c2.4-1 4-3.2 4-5.8 0-3.8-3-6.6-7-6.6H78zm6.6 10H81V5h3.6c2.4 0 4 1.4 4 3.5S84 12 81.6 12z"/>
</svg>
