<svg xmlns="http://www.w3.org/2000/svg" viewBox="0 0 100 24" fill="currentColor">
  <path d="M8.5 2C3.8 2 0 5.2 0 9.2c0 2.8 1.8 5.2 4.5 6.4l4.5 2c1.6.7 2.5 1.6 2.5 3 0 1.8-1.6 3.2-3.8 3.2-2.4 0-4.2-1.6-4.2-3.8H0c0 3.8 3.4 6.8 7.7 6.8 4.5 0 7.8-3 7.8-7 0-3-1.8-5.2-4.8-6.6l-4.2-2c-1.4-.6-2.2-1.5-2.2-2.8 0-1.8 1.5-3 3.5-3 2.2 0 3.8 1.4 3.8 3.4h3.4c0-3.6-3.2-6.6-7.5-6.6z"/>
  <path d="M25 2v13c0 3 2 5.2 5 5.2s5-2.2 5-5.2V2h-3v13c0 1.5-.8 2.5-2 2.5s-2-1-2-2.5V2h-3z"/>
  <path d="M45 2v13c0 3 2 5.2 5 5.2s5-2.2 5-5.2V2h-3v13c0 1.5-.8 2.5-2 2.5s-2-1-2-2.5V2h-3z"/>
  <path d="M60 2v20h3V8.5l8.5 13.5H75V2h-3v13.5L63.5 2H60z"/>
  <path d="M82 5h5v15h3V5h5V2H82v3z"/>
  <path d="M100 2c-5.5 0-10 4.5-10 10s4.5 10 10 10V2z"/>
</svg>
