<svg xmlns="http://www.w3.org/2000/svg" viewBox="0 0 100 24" fill="currentColor">
  <path d="M8.4 2L4.2 18h-.1L0 2h-3l5.4 20h3.6l3.2-12.8h.1L12.4 22H16L21.4 2h-3l-4.2 16h-.1L10.2 2h-1.8z"/>
  <path d="M28 2v8h-6V2h-3v20h3v-9h6v9h3V2h-3z"/>
  <path d="M44.8 2C39 2 34.4 6.6 34.4 12.4S39 23 44.8 23s10.4-4.6 10.4-10.4S50.6 2 44.8 2zm0 18c-4.2 0-7.4-3.2-7.4-7.4s3.2-7.6 7.4-7.6 7.4 3.2 7.4 7.6-3.2 7.4-7.4 7.4z"/>
  <path d="M68.4 2C62.6 2 58 6.6 58 12.4S62.6 23 68.4 23s10.4-4.6 10.4-10.4S74.2 2 68.4 2zm0 18c-4.2 0-7.4-3.2-7.4-7.4s3.2-7.6 7.4-7.6 7.4 3.2 7.4 7.6-3.2 7.4-7.4 7.4z"/>
  <path d="M92 2h-6.8v20H88v-7.2h4c4 0 7.2-2.8 7.2-6.4S96 2 92 2zm-.4 10H88V5h3.6c2.4 0 4.2 1.4 4.2 3.5S93.8 12 91.6 12z"/>
</svg>
