<svg xmlns="http://www.w3.org/2000/svg" viewBox="0 0 400 80" fill="currentColor">
  <!-- W -->
  <path d="M0 14h14l14 46 14-46h12l14 46 14-46h14l-22 56h-14l-12-40-12 40h-14L0 14z"/>
  <!-- i -->
  <path d="M108 14h12v8h-12v-8zm0 18h12v38h-12V32z"/>
  <!-- t -->
  <path d="M136 22h12v10h10v10h-10v18c0 3 2 5 5 5h5v10c-2 0-5 1-8 1-10 0-14-6-14-16V42h-8V32h8V22z"/>
  <!-- h -->
  <path d="M172 14h12v24c4-5 10-8 16-8 12 0 20 8 20 22v18h-12V54c0-8-4-12-10-12-8 0-14 6-14 16v12h-12V14z"/>
  <!-- i -->
  <path d="M236 14h12v8h-12v-8zm0 18h12v38h-12V32z"/>
  <!-- n -->
  <path d="M264 32h12v6c4-5 10-8 16-8 12 0 20 8 20 22v18h-12V54c0-8-4-12-10-12-8 0-14 6-14 16v12h-12V32z"/>
  <!-- g -->
  <path d="M328 32h12v4c4-4 9-6 15-6 14 0 24 10 24 24s-10 24-24 24c-6 0-11-2-15-6v22h-12V32zm24 36c8 0 14-6 14-14s-6-14-14-14-14 6-14 14 6 14 14 14z"/>
  <!-- s -->
  <path d="M396 32h12c0 0 0 2 0 4-2 10-10 16-22 16-14 0-22-8-22-20s8-20 22-20c10 0 18 6 20 14h-12c-2-4-5-6-10-6-6 0-10 4-10 12s4 12 10 12c4 0 8-3 10-8v-4h2z"/>
</svg>
