<svg xmlns="http://www.w3.org/2000/svg" viewBox="0 0 110 24" fill="currentColor">
  <path d="M8.4 2L4.2 18h-.1L0 2h-3l5.4 20h3.6l3.2-12.8h.1L12.4 22H16L21.4 2h-3l-4.2 16h-.1L10.2 2h-1.8z"/>
  <path d="M24 2h3v3h-3zM24 8h3v14h-3z"/>
  <path d="M32 5h5v3h-2v14h-3V8h-2V5z"/>
  <path d="M44 2v8h-6V2h-3v20h3v-9h6v9h3V2h-3z"/>
  <path d="M52 2h3v3h-3zM52 8h3v14h-3z"/>
  <path d="M60 8v6.5c0 4 2.4 7.5 6.5 7.5 2.5 0 4.5-1.2 5.5-3v2.5h3V8h-3v8c0 2.5-1.8 4.2-4.2 4.2S64 18.5 64 16V8h-4z"/>
  <path d="M84 8c-2.2 0-4 1-5 2.5V8h-3v20h3V20c1 1.5 2.8 2.5 5 2.5 4.4 0 8-3.6 8-7.2S88.4 8 84 8zm-.5 12c-2.8 0-5-2.2-5-5s2.2-5 5-5 5 2.2 5 5-2.2 5-5 5z"/>
  <path d="M96 14.5c0-4 3-6.5 6.5-6.5 2 0 3.8.8 5 2.2l-2 2c-.8-1-2-1.5-3-1.5-2 0-3.5 1.5-3.5 3.8s1.5 3.8 3.5 3.8c1 0 2.2-.5 3-1.5l2 2c-1.2 1.4-3 2.2-5 2.2-3.5 0-6.5-2.5-6.5-6.5z"/>
</svg>
