<svg width="976" height="1089" viewBox="0 0 976 1089" fill="none" xmlns="http://www.w3.org/2000/svg">
<path d="M973.34 0H976V38.1977C974.221 47.1413 974.664 58.5434 973.746 67.7516C972.228 82.9934 970.279 98.0877 967.634 113.18C952.201 202.186 902.963 275.414 828.644 326.368C767.685 368.163 694.851 394.869 624.672 417.396L578.025 432.16C570.407 434.492 557.004 437.559 550.241 441.029C560.449 440.008 572.17 437.258 582.288 435.011C671.292 415.249 761.168 384.776 840.637 340.151C860.782 328.703 880.494 316.509 899.731 303.593C910.96 296.064 923.145 287.186 934.358 280.036C930.176 314.068 920.095 354.421 906.339 385.519C885.024 433.705 846.577 483.822 797.553 505.814C771.27 517.601 733.795 520.739 705.332 523.659C678.9 526.35 652.44 528.739 625.959 530.823C614.41 531.812 592.304 533.193 581.305 535.494C590.744 536.728 609.81 536.728 619.992 536.936C676.223 538.069 735.67 535.259 791.698 530.107C804.54 528.872 817.356 527.436 830.15 525.799C836.887 524.987 846.273 523.605 852.918 523.445C848.393 534.805 842.848 544.687 836.678 555.216C806.041 607.464 759.667 646.01 704.184 669.931C687.004 677.489 669.198 683.547 650.971 688.029C642.814 690 624.822 693.146 618.075 695.523C598.672 730.288 578.458 756.137 547.575 781.911C539.118 788.973 527.609 796.029 520.446 802.317L753.481 1087.03L593.677 1087.04L541.859 1087.06C533.507 1087.06 522.399 1087.37 514.231 1086.94C496.891 1066.15 479.08 1042.22 462.378 1020.67L380.223 914.906L347.358 872.449C341.878 865.382 334.483 855.27 328.676 848.897C278.956 848.379 229.232 848.373 179.511 848.881C178.762 905.109 179.415 962.549 179.392 1018.89L179.437 1063.05C179.455 1069.53 179.82 1082.64 178.976 1088.63C138.243 1088.15 97.5065 1088.03 56.772 1088.26C39.4053 1088.28 16.8603 1088.99 0 1088.33V563.827C1.28761 559.708 1.55658 549.965 1.91051 545.28C2.53042 536.295 3.37827 527.324 4.45326 518.381C10.8897 467.894 27.244 422.843 56.8356 381.107C122.484 288.514 240.406 239.531 352.657 252.226C364.988 253.645 377.254 255.576 389.423 258.014C404.491 261.084 425.141 268.691 439.269 266.185C464.789 261.661 490.155 256.147 515.446 250.558C665.614 217.373 789.176 168.778 906.12 67.0027C922.777 52.4139 938.782 37.0997 954.092 21.1046C959.541 15.5002 968.975 6.08789 973.34 0ZM68.6459 1045.42C89.4036 1045.42 115.23 1046.08 135.537 1045.22C136.278 936.364 136.292 827.498 135.581 718.637L135.618 622.912C135.65 572.95 134.823 526.845 147.261 477.913C157.864 435.051 180.268 396.017 211.931 365.241C231.116 346.775 252.845 331.15 276.458 318.842C291.448 310.873 306.866 304.246 322.732 298.242C325.046 297.366 331.745 295.329 332.903 293.326C331.348 292.262 312.294 292.822 309.144 292.969C234.174 295.207 163.154 327.095 111.672 381.635C81.7698 413.793 60.8074 456.246 51.285 498.983C42.4891 538.458 43.0249 579.232 43.0715 619.429L43.1 706.116L43.168 935.877C43.1621 971.993 43.6303 1009.22 43.1441 1045.27C51.6436 1045.43 60.145 1045.48 68.6459 1045.42ZM298.155 659.076C311.533 659.306 324.913 659.397 338.293 659.349C355.135 659.375 369.336 659.797 386.04 657.137C413.073 650.241 435.104 637.26 449.687 612.517C462.947 590.274 466.609 563.597 459.837 538.603C450.342 502.947 421.405 472.514 383.027 470.014C380.794 469.869 375.316 469.957 373.12 470.27C351.52 472.731 333.415 484.646 320.002 501.551C298.006 529.275 296.528 560.135 296.413 593.452C296.336 615.898 297.819 637.057 298.155 659.076ZM383.526 848.475C388.694 856.472 397.109 866.21 403.143 873.971L444.938 927.619L496.773 994.402C505.205 1005.4 513.765 1016.3 522.452 1027.1C526.668 1032.44 532.044 1039.69 536.357 1044.69C546.699 1044.75 557.041 1044.75 567.383 1044.71L626.12 1044.72C638.033 1044.75 651.767 1045.07 663.514 1044.45L548.285 903.768L503.883 849.618C500.963 846.082 484.214 824.496 481.624 824.159C459.364 833.609 436.884 841.274 412.932 845.307C402.889 847.001 393.415 847.294 383.526 848.475Z" fill="black"/>
</svg>
